<svg xmlns="http://www.w3.org/2000/svg" viewBox="0 0 220.4 227.13"><defs><style>.cls-1{fill:#fff;}</style></defs><g id="Layer_2" data-name="Layer 2"><g id="Layer_1-2" data-name="Layer 1"><circle class="cls-1" cx="119.68" cy="9.04" r="9.04"/><circle class="cls-1" cx="137.16" cy="33.52" r="9.04"/><circle class="cls-1" cx="154.65" cy="58" r="9.04"/><circle class="cls-1" cx="174.13" cy="84" r="9.04"/><circle class="cls-1" cx="191.19" cy="107.88" r="9.04"/><circle class="cls-1" cx="211.35" cy="136.11" r="9.04"/><circle class="cls-1" cx="101.63" cy="22.84" r="9.04"/><circle class="cls-1" cx="119.12" cy="47.32" r="9.04"/><circle class="cls-1" cx="136.61" cy="71.79" r="9.04"/><circle class="cls-1" cx="156.09" cy="97.8" r="9.04"/><circle class="cls-1" cx="173.15" cy="121.67" r="9.04"/><circle class="cls-1" cx="193.31" cy="149.9" r="9.04"/><circle class="cls-1" cx="82.97" cy="36.4" r="9.04"/><circle class="cls-1" cx="100.46" cy="60.88" r="9.04"/><circle class="cls-1" cx="117.94" cy="85.35" r="9.04"/><circle class="cls-1" cx="137.42" cy="111.36" r="9.04"/><circle class="cls-1" cx="154.48" cy="135.23" r="9.04"/><circle class="cls-1" cx="174.65" cy="163.46" r="9.04"/><circle class="cls-1" cx="64.93" cy="50.2" r="9.04"/><circle class="cls-1" cx="82.41" cy="74.67" r="9.04"/><circle class="cls-1" cx="99.9" cy="99.15" r="9.04"/><circle class="cls-1" cx="119.38" cy="125.15" r="9.04"/><circle class="cls-1" cx="136.44" cy="149.03" r="9.04"/><circle class="cls-1" cx="156.61" cy="177.26" r="9.04"/><circle class="cls-1" cx="45.75" cy="63.67" r="9.04"/><circle class="cls-1" cx="63.24" cy="88.15" r="9.04"/><circle class="cls-1" cx="80.72" cy="112.62" r="9.04"/><circle class="cls-1" cx="100.2" cy="138.63" r="9.04"/><circle class="cls-1" cx="117.26" cy="162.5" r="9.04"/><circle class="cls-1" cx="137.43" cy="190.73" r="9.04"/><circle class="cls-1" cx="27.71" cy="77.46" r="9.04"/><circle class="cls-1" cx="45.19" cy="101.94" r="9.04"/><circle class="cls-1" cx="62.68" cy="126.42" r="9.04"/><circle class="cls-1" cx="82.16" cy="152.42" r="9.04"/><circle class="cls-1" cx="99.22" cy="176.3" r="9.04"/><circle class="cls-1" cx="119.39" cy="204.53" r="9.04"/><circle class="cls-1" cx="9.04" cy="91.02" r="9.04"/><circle class="cls-1" cx="26.53" cy="115.5" r="9.04"/><circle class="cls-1" cx="44.02" cy="139.98" r="9.04"/><circle class="cls-1" cx="63.5" cy="165.98" r="9.04"/><circle class="cls-1" cx="80.55" cy="189.86" r="9.04"/><circle class="cls-1" cx="100.72" cy="218.09" r="9.04"/></g></g></svg>