<svg xmlns="http://www.w3.org/2000/svg" viewBox="0 0 216.15 140"><defs><style>.cls-1{fill:none;stroke:#fff;stroke-miterlimit:10;stroke-width:4px;}</style></defs><g id="Layer_2" data-name="Layer 2"><g id="Layer_1-2" data-name="Layer 1"><polyline class="cls-1" points="2.26 28.07 24.24 3.06 45.47 28.07 65.17 3.82 88.67 29.59 106.11 7.61 128.85 31.86 156.89 7.61 174.33 29.59 197.83 8.37 212.99 30.35"/><polyline class="cls-1" points="3.78 47.78 25.76 22.77 46.98 47.78 66.69 23.53 90.19 49.3 107.62 27.32 130.36 51.57 158.41 27.32 175.84 49.3 199.34 28.07 214.5 50.06"/><polyline class="cls-1" points="3.78 68.25 25.76 43.23 46.98 68.25 66.69 43.99 90.19 69.77 107.62 47.78 130.36 72.04 158.41 47.78 175.84 69.77 199.34 48.54 214.5 70.52"/><polyline class="cls-1" points="1.5 90.99 23.48 65.97 44.71 90.99 64.42 66.73 87.92 92.5 105.35 70.52 128.09 94.78 156.14 70.52 173.57 92.5 197.07 71.28 212.23 93.26"/><polyline class="cls-1" points="1.5 113.73 23.48 88.72 44.71 113.73 64.42 89.47 87.92 115.25 105.35 93.26 128.09 117.52 156.14 93.26 173.57 115.25 197.07 94.02 212.23 116"/><polyline class="cls-1" points="1.5 133.44 23.48 108.42 44.71 133.44 64.42 109.18 87.92 134.95 105.35 112.97 128.09 137.23 156.14 112.97 173.57 134.95 197.07 113.73 212.23 135.71"/></g></g></svg>